<svg xmlns="http://www.w3.org/2000/svg" width="128" viewBox="0 0 100 100"><path d="m88.8 42.8-4.7-0.5a1.9 1.9 0 0 1-1.6-1.4 33.8 33.8 0 0 0-3.1-7.4c-0.4-0.7-0.3-1.50.1-2.1l2.7-3.3c1.2-1.5 1.1-3.10.1-4.1l-6.2-6.2a2.8 2.8 0 0 0-3.8-0.2l-3.7 3.0a1.9 1.9 0 0 1-2.10.1 34 34 0 0 0-7.4-3.1 1.9 1.9 0 0 1-1.4-1.6c-0.1-1.2-0.4-3.1-0.5-4.7a2.8 2.8 0 0 0-2.8-2.5h-8.9a2.8 2.8 0 0 0-2.8 2.5l-0.5 4.7a1.9 1.9 0 0 1-1.4 1.6 33.8 33.8 0 0 0-7.4 3.1c-0.70.4-1.50.3-2.1-0.1l-3.3-2.7c-1.5-1.2-3.1-1.1-4.1-0.1l-6.2 6.2a2.8 2.8 0 0 0-0.2 3.8l3.0 3.7c0.50.60.5 1.40.1 2.1a34 34 0 0 0-3.1 7.4 1.9 1.9 0 0 1-1.6 1.4c-1.20.1-3.10.4-4.70.5a2.8 2.8 0 0 0-2.5 2.8v8.9a2.8 2.8 0 0 0 2.5 2.8l4.70.5c0.80.1 1.40.6 1.6 1.4a33.8 33.8 0 0 0 3.1 7.4c0.40.70.3 1.5-0.1 2.1l-2.7 3.3c-1.2 1.5-1.1 3.1-0.1 4.1l6.2 6.2a2.8 2.8 0 0 0 3.80.2l3.7-3.0a1.9 1.9 0 0 1 2.1-0.1 34 34 0 0 0 7.4 3.1c0.80.2 1.30.8 1.4 1.60.1 1.20.4 3.10.5 4.7a2.8 2.8 0 0 0 2.8 2.5h8.9a2.8 2.8 0 0 0 2.8-2.5l0.5-4.7a1.9 1.9 0 0 1 1.4-1.6A33.8 33.8 0 0 0 66.5 79.4c0.7-0.4 1.5-0.3 2.10.1l3.3 2.7c1.5 1.2 3.1 1.1 4.10.1l6.2-6.2a2.8 2.8 0 0 0 0.2-3.8l-3.0-3.7a1.9 1.9 0 0 1-0.1-2.1 34 34 0 0 0 3.1-7.4 1.9 1.9 0 0 1 1.6-1.4l4.7-0.5a2.8 2.8 0 0 0 2.5-2.8v-8.9a2.8 2.8 0 0 0-2.5-2.8zM50 66.9c-9.3 0-16.9-7.5-16.9-16.9S40.7 33.1 50 33.1 66.9 40.7 66.9 50 59.3 66.9 50 66.9"/></svg>