<svg xmlns="http://www.w3.org/2000/svg" width="128" viewBox="-10 2 110 102"><path d="m78.4 37.6-3.1 3.1c2.2 4.5 3.4 9.6 3.4 15 0 19-15.4 34.4-34.4 34.4C25.5 90 10 74.6 10 55.6s15.4-34.4 34.4-34.4c5.4 0 10.4 1.2 14.9 3.4l3.1-3.1v-3.8c-5.5-2.6-11.6-4.1-18-4.1C21.3 13.6 2.5 32.4 2.5 55.5c0 23.1 18.8 41.9 41.9 41.9 23.1 0 41.9-18.8 41.9-41.9 0-6.4-1.5-12.5-4.1-18l-3.80.0zM44.4 36.7c0.9 0 1.80.1 2.70.2l6.2-6.2c-2.8-1.1-5.7-1.6-8.9-1.6C29.8 29.2 18 41 18 55.6s11.8 26.5 26.5 26.5c14.6 0 26.5-11.9 26.5-26.5 0-3.1-0.6-6.1-1.6-8.9l-6.2 6.2c0.20.90.2 1.80.2 2.7C63.4 66 54.9 74.5 44.5 74.5c-10.5 0-19-8.5-19-18.9C25.5 45.2 34 36.7 44.4 36.7zM97.3 16.7c-0.4-1.1-1.5-1.7-2.6-1.7h-9.6l0.0-9.7c0-1.1-0.7-2.2-1.7-2.6-1.1-0.4-2.3-0.2-3.10.6l-9.5 9.5c-0.50.5-0.8 1.2-0.8 2v9.9L49 45.6c-1.4-0.7-3-1.1-4.6-1.1-6.1 0-11 4.9-11 11s4.9 11 11 11c6.1 0 11-4.9 11-11 0-1.7-0.4-3.2-1.1-4.6L75.3 30h9.9c0.7 0 1.5-0.3 2-0.8l9.5-9.5c0.8-0.8 1-2 0.6-3z"/></svg>