<svg width="128" xmlns="http://www.w3.org/2000/svg" viewBox="0 0 1200 1200"><path d="M406 425c0 63-51 115-114 115s-114-51-114-114S228 310 291 310s115 51 115 115m617 0c0 63-51 115-114 115S794 488 794 425 845 310 909 310 1023 361 1023 425M618 576h-35c-154 0-279 125-279 279 0 23 13 44 34 54 79 39 168 61 262 61s183-22 262-61c21-10 34-31 34-54 0-154-125-279-279-279zm131-198c0 82-66 148-148 148s-148-66-148-148S518 230 600 230s148 66 148 148"/><path d="M399 599c-28-14-60-22-94-22h-27c-119 0-215 97-215 216 0 18 10 34 26 42 56 28 117 44 183 47a97 97 0 0 1-4-27c0-105 52-198 131-255zm523-22H895c-34 0-65 8-94 22 79 57 131 150 131 255a97 97 0 0 1-4 27c65-3 127-19 183-47 16-8 26-24 26-42 0-119-96-215-215-215z"/></svg>