<svg xmlns="http://www.w3.org/2000/svg" width="128" viewBox="0 0 100 100"><path d="M91.1 89.3h-4.3V7.2c0-2.6-2.1-4.7-4.7-4.7H17.8a4.7 4.7 0 0 0-4.7 4.7v82.1H8.9c-0.9 0-1.60.7-1.6 1.6v5.1c0 0.90.7 1.6 1.6 1.6h82.2c0.9 0 1.6-0.7 1.6-1.6v-5.1c0-0.9-0.7-1.6-1.6-1.6zm-39.6 0v-15H60c0.9 0 1.60.7 1.6 1.6v13.5L51.5 89.4zm17.9-75.6c0-0.90.7-1.6 1.6-1.6h4.7c0.9 0 1.60.7 1.6 1.6v4.7c0 0.9-0.7 1.6-1.6 1.6h-4.7a1.6 1.6 0 0 1-1.6-1.6zm0 15.6c0-0.90.7-1.6 1.6-1.6h4.7c0.9 0 1.60.7 1.6 1.6v4.7c0 0.9-0.7 1.6-1.6 1.6h-4.7a1.6 1.6 0 0 1-1.6-1.6zm0 15.5c0-0.90.7-1.6 1.6-1.6h4.7c0.9 0 1.60.7 1.6 1.6v4.7c0 0.9-0.7 1.6-1.6 1.6h-4.7a1.6 1.6 0 0 1-1.6-1.6zm0 15.5c0-0.90.7-1.6 1.6-1.6h4.7c0.9 0 1.60.7 1.6 1.6v4.7c0 0.9-0.7 1.6-1.6 1.6h-4.7a1.6 1.6 0 0 1-1.6-1.6zm0 15.5c0-0.90.7-1.6 1.6-1.6h4.7c0.9 0 1.60.7 1.6 1.6v4.7c0 0.9-0.7 1.6-1.6 1.6h-4.7a1.6 1.6 0 0 1-1.6-1.6zm-15.5-62.1c0-0.90.7-1.6 1.6-1.6h4.7c0.9 0 1.60.7 1.6 1.6v4.7c0 0.9-0.7 1.6-1.6 1.6h-4.7a1.6 1.6 0 0 1-1.6-1.6zm0 15.6c0-0.90.7-1.6 1.6-1.6h4.7c0.9 0 1.60.7 1.6 1.6v4.7c0 0.9-0.7 1.6-1.6 1.6h-4.7a1.6 1.6 0 0 1-1.6-1.6zm0 15.5c0-0.90.7-1.6 1.6-1.6h4.7c0.9 0 1.60.7 1.6 1.6v4.7c0 0.9-0.7 1.6-1.6 1.6h-4.7a1.6 1.6 0 0 1-1.6-1.6zm0 15.5c0-0.90.7-1.6 1.6-1.6h4.7c0.9 0 1.60.7 1.6 1.6v4.7c0 0.9-0.7 1.6-1.6 1.6h-4.7a1.6 1.6 0 0 1-1.6-1.6zm-15.5-46.6c0-0.90.7-1.6 1.6-1.6h4.7c0.9 0 1.60.7 1.6 1.6v4.7c0 0.9-0.7 1.6-1.6 1.6h-4.7a1.6 1.6 0 0 1-1.6-1.6zm0 15.6c0-0.90.7-1.6 1.6-1.6h4.7c0.9 0 1.60.7 1.6 1.6v4.7c0 0.9-0.7 1.6-1.6 1.6h-4.7a1.6 1.6 0 0 1-1.6-1.6zm0 15.5c0-0.90.7-1.6 1.6-1.6h4.7c0.9 0 1.60.7 1.6 1.6v4.7c0 0.9-0.7 1.6-1.6 1.6h-4.7a1.6 1.6 0 0 1-1.6-1.6zm0 15.5c0-0.90.7-1.6 1.6-1.6h4.7c0.9 0 1.60.7 1.6 1.6v4.7c0 0.9-0.7 1.6-1.6 1.6h-4.7a1.6 1.6 0 0 1-1.6-1.6zm-15.5-46.6c0-0.90.7-1.6 1.6-1.6h4.7c0.9 0 1.60.7 1.6 1.6v4.7c0 0.9-0.7 1.6-1.6 1.6h-4.7a1.6 1.6 0 0 1-1.6-1.6zm0 15.6c0-0.90.7-1.6 1.6-1.6h4.7c0.9 0 1.60.7 1.6 1.6v4.7c0 0.9-0.7 1.6-1.6 1.6h-4.7a1.6 1.6 0 0 1-1.6-1.6zm0 15.5c0-0.90.7-1.6 1.6-1.6h4.7c0.9 0 1.60.7 1.6 1.6v4.7c0 0.9-0.7 1.6-1.6 1.6h-4.7a1.6 1.6 0 0 1-1.6-1.6zm0 15.5c0-0.90.7-1.6 1.6-1.6h4.7c0.9 0 1.60.7 1.6 1.6v4.7c0 0.9-0.7 1.6-1.6 1.6h-4.7a1.6 1.6 0 0 1-1.6-1.6zm0 15.5c0-0.90.7-1.6 1.6-1.6h4.7c0.9 0 1.60.7 1.6 1.6v4.7c0 0.9-0.7 1.6-1.6 1.6h-4.7a1.6 1.6 0 0 1-1.6-1.6zm15.5 0c0-0.90.7-1.6 1.6-1.6h8.5v15H38.4z"/></svg>