<svg xmlns="http://www.w3.org/2000/svg" width="128" viewBox="0 0 100 100"><path d="M51.4 27.6c-5.5-0.4-10.7 1.4-14.7 5.2a19.6 19.6 0 0 0-6.2 14.3c0 4.4 1.4 8.6 4.2 12.0a80 80 0 0 1 5.6 8.2v5.0c0 1.10.9 2.0 2.0 2.0h15.4a2.0 2.0 0 0 0 2.0-2.0v-4.9c1.8-2.9 3.9-6.0 5.7-8.3a19.5 19.5 0 0 0 4.2-12.9c-0.4-9.8-8.3-17.9-18.1-18.6zM26.6 53.1c-0.2 0-0.30.0-0.50.1l-5.6 1.8a1.5 1.5 0 0 0-1.0 1.9 1.5 1.5 0 0 0 1.4 1.0q0.3 0 0.5-0.1l5.6-1.8c0.4-0.10.7-0.40.9-0.80.2-0.40.2-0.80.1-1.1a1.5 1.5 0 0 0-1.4-1.0m0.5-15.1-5.6-1.8a1.5 1.5 0 0 0-1.91.0c-0.30.80.2 1.61.0 1.9l5.6 1.8q0.20.10.50.1a1.5 1.5 0 0 0 1.4-1.1c0.1-0.40.1-0.8-0.1-1.1a1.5 1.5 0 0 0-0.9-0.8m7.3-10.0a1.5 1.5 0 0 0 2.10.3c0.3-0.20.5-0.60.6-1.0a1.5 1.5 0 0 0-0.3-1.1l-3.4-4.7a1.5 1.5 0 0 0-1.2-0.6c-0.3 0-0.60.1-0.90.3a1.5 1.5 0 0 0-0.61.0c-0.10.40.00.80.3 1.1zm15.7-4.1a1.5 1.5 0 0 0 1.5-1.5v-5.9c0-0.8-0.7-1.5-1.5-1.5s-1.50.7-1.5 1.5v5.9a1.5 1.5 0 0 0 1.5 1.5m13.6 4.4a1.5 1.5 0 0 0 2.1-0.3l3.4-4.8c0.2-0.30.3-0.70.3-1.1a1.5 1.5 0 0 0-0.6-1.0 1.5 1.5 0 0 0-2.10.3l-3.4 4.8a1.5 1.5 0 0 0-0.3 1.1c0.10.40.30.70.61.0m15.8 26.7-5.6-1.8a1.5 1.5 0 0 0-1.91.0c-0.30.80.2 1.61.0 1.9l5.6 1.8c0.10.00.30.10.50.10.6 0 1.2-0.4 1.4-1.0a1.5 1.5 0 0 0-1.0-1.9M73.4 40.9q0.3 0 0.5-0.1l5.6-1.8a1.5 1.5 0 0 0 1.0-1.9 1.5 1.5 0 0 0-1.9-1.0l-5.6 1.8c-0.40.1-0.70.4-0.90.8a1.5 1.5 0 0 0-0.1 1.1c0.20.60.8 1.0 1.4 1.0M58.2 76.9H41.4a1.3 1.3 0 0 0 0 2.7h16.9a1.3 1.3 0 0 0 0-2.7m0 5.4H41.4a1.3 1.3 0 0 0 0 2.7h16.9a1.3 1.3 0 0 0 0-2.7"/></svg>