<svg xmlns="http://www.w3.org/2000/svg" width="128" viewBox="0 0 100 100"><path d="M50 61.2c-0.7 0-1.4-0.1-2.1-0.4l-27.3-9.5v17.3c0 0.60.2 1.20.7 1.5C21.7 70.5 31.5 79 50 79s28.3-8.5 28.7-8.9c0.4-0.40.7-1 0.7-1.5V51.3l-27.3 9.5c-0.70.2-1.40.4-2.10.4z"/><path d="M96 36.8 50.8 21.1q-0.8-0.3-1.5 0L4 36.8c-2 0.7-2 3.6 0 4.4l45.2 15.7q0.80.3 1.5 0l37.3-13v9.9l-2.4 1.6c-0.50.4-0.9 1-0.9 1.7v5.4c0 1.10.9 2 2 2h6.6c1.1 0 2-0.9 2-2v-5.4c0-0.7-0.3-1.3-0.9-1.7L92 53.8V42.5l3.8-1.3c2.2-0.8 2.2-3.70.2-4.4"/></svg>