<svg xmlns="http://www.w3.org/2000/svg" width="128" viewBox="0 0 100 100"><path d="M65 9.1H35c-16.0 0-29 13.0-29 29.0v7.9c0 12.5 7.9 23.5 19.7 27.5l1.20.4-0.6 1.1c-1.6 2.7-3.7 7.0-6.5 13.1-0.30.7-0.2 1.60.4 2.2a2.0 2.0 0 0 0 2.20.4l34.0-15.6h8.7c16.0 0 29-13.0 29-29.0v-7.9C94 22.2 81.0 9.1 65 9.1m-37.7 39.1c-3.0 0-5.5-2.5-5.5-5.5s2.5-5.5 5.5-5.5a5.5 5.5 0 0 1 5.5 5.5 5.5 5.5 0 0 1-5.5 5.5m22.7 0c-3.0 0-5.5-2.5-5.5-5.5s2.5-5.5 5.5-5.5a5.5 5.5 0 0 1 5.5 5.5A5.5 5.5 0 0 1 50 48.3m22.7 0c-3.0 0-5.5-2.5-5.5-5.5s2.5-5.5 5.5-5.5a5.5 5.5 0 0 1 5.5 5.5 5.5 5.5 0 0 1-5.5 5.5"/></svg>